<?xml version="1.0" encoding="UTF-8"?>
<svg width="64px" height="64px" viewBox="0 0 64 64" version="1.1" xmlns="http://www.w3.org/2000/svg" xmlns:xlink="http://www.w3.org/1999/xlink">
    <!-- Generator: Sketch 64 (93537) - https://sketch.com -->
    <title>default-avatar</title>
    <desc>Created with Sketch.</desc>
    <g id="default-avatar" stroke="none" stroke-width="1" fill="none" fill-rule="evenodd">
        <rect fill="#FFFFFF" x="0" y="0" width="64" height="64"></rect>
        <rect id="Rectangle" fill="#FFFFFF" fill-rule="nonzero" x="0" y="0" width="64" height="64"></rect>
        <path d="M64,0 L64,64 L54.5350707,63.9993553 C55.4175467,61.3950421 55.8954471,59.4592632 55.8611573,58.7070309 C55.5192735,51.2069535 44.9920993,44.1883729 32.0574928,44.1883729 C19.1228864,44.1883729 8.59571218,51.2069535 8.25382831,58.7070309 C8.23045953,59.2196835 8.7749119,61.2063416 9.76703976,63.9999647 L0,64 L0,0 L64,0 Z M32.0574928,19.9716129 C26.1569538,19.9716129 21.3736219,24.7549449 21.3736219,30.6554839 C21.3736219,36.5560229 26.1569538,41.3393548 32.0574928,41.3393548 C37.9580318,41.3393548 42.7413638,36.5560229 42.7413638,30.6554839 C42.7413638,24.7549449 37.9580318,19.9716129 32.0574928,19.9716129 Z" fill="#C1C1C1" fill-rule="nonzero"></path>
    </g>
</svg>